<svg width="215" height="65" viewBox="0 0 215 65" fill="none" xmlns="http://www.w3.org/2000/svg">
<g clip-path="url(#clip0_414_2)">
<path d="M48.6324 31.69L45.894 25.0101H38.6144V17.9379H25.5203V19.359H37.1932V25.0101V41.5155H23.5208C23.1833 39.5835 21.4971 38.1084 19.4699 38.1084C17.4427 38.1084 15.7573 39.5835 15.4205 41.5155H15.2428C14.9053 39.5835 13.2192 38.1084 11.1919 38.1084C9.16474 38.1084 7.47931 39.5835 7.1425 41.5155H4.91492V42.9366H7.1425C7.48144 44.8679 9.16616 46.3423 11.1919 46.3423C13.2199 46.3423 14.9046 44.8679 15.2428 42.9366H15.4205C15.7594 44.8679 17.4441 46.3423 19.4699 46.3423C21.4978 46.3423 23.1825 44.8679 23.5208 42.9366H37.1932H38.6144H40.13C40.4689 44.8679 42.1536 46.3423 44.1808 46.3423C46.2073 46.3423 47.8921 44.8679 48.2303 42.9366H52.7586V34.0057L48.6324 31.69ZM11.1912 44.9205C9.70476 44.9205 8.49611 43.7111 8.49611 42.2247C8.49611 40.7382 9.70476 39.5288 11.1912 39.5288C12.6777 39.5288 13.8878 40.7382 13.8878 42.2247C13.8878 43.7111 12.6777 44.9205 11.1912 44.9205ZM19.4692 44.9205C17.9827 44.9205 16.7741 43.7111 16.7741 42.2247C16.7741 40.7382 17.9827 39.5288 19.4692 39.5288C20.9557 39.5288 22.1643 40.7382 22.1643 42.2247C22.1643 43.7111 20.9557 44.9205 19.4692 44.9205ZM44.1808 44.9205C42.6944 44.9205 41.4843 43.7111 41.4843 42.2247C41.4843 40.7382 42.6944 39.5288 44.1808 39.5288C45.6673 39.5288 46.876 40.7382 46.876 42.2247C46.876 43.7111 45.6673 44.9205 44.1808 44.9205ZM51.3375 41.5148H48.2303C47.8928 39.5828 46.208 38.1077 44.1808 38.1077C42.1536 38.1077 40.4668 39.5828 40.13 41.5148H38.6144V26.4312H44.9411L47.5055 32.6876L51.3375 34.8384V41.5148Z" fill="#081073"/>
<path d="M41.4231 27.9503H40.002V31.5031V32.9242H41.4231H44.9759V31.5031H41.4231V27.9503Z" fill="#081073"/>
<path d="M23.9812 17.9379H21.554V19.359H23.9812V17.9379Z" fill="#081073"/>
<path d="M11.4868 24.2995H9.05957V25.7206H11.4868V24.2995Z" fill="#081073"/>
<path d="M29.488 24.2995H12.9079V25.7206H29.488V24.2995Z" fill="#081073"/>
<path d="M19.7776 30.6604H0V32.0815H19.7776V30.6604Z" fill="#081073"/>
<path d="M64.8931 0H63.3104V64.3655H64.8931V0Z" fill="#081073"/>
<path d="M72.8069 16.6623H79.9284V19.6689H78.1727V30.2908H79.9284V33.2975H72.8069V30.2908H74.5297V19.6689H72.8069V16.6623ZM92.2073 16.6623H98.5278V19.6798H97.1781V33.2972H93.535L86.611 22.5436V30.2906H88.0046V33.2972H81.6951V30.2906H83.0667V19.6796H81.717V16.662H86.7427L93.6228 27.5583V19.6797H92.2072L92.2073 16.6623ZM103.18 30.2912H104.903V19.5705H102.884V21.7212H99.3069V16.6626H114.439V21.7212H110.84V19.5705H108.547V30.2912H110.302V33.2978H103.181L103.18 30.2912ZM116.019 16.6623H129.252V22.3353H125.675V19.9761H121.406V23.257H124.709V26.4392H121.406V30.2907H125.675V27.3389H129.252V33.2972H116.019V30.2906H117.764V19.9759H116.019V16.6623ZM131.162 16.6623H139.962C140.818 16.6623 141.583 16.7903 142.256 17.0463C142.929 17.3024 143.495 17.6444 143.956 18.0723C144.417 18.5003 144.77 18.9977 145.015 19.5646C145.26 20.1315 145.383 20.7222 145.383 21.3367C145.383 21.9 145.323 22.3938 145.202 22.8181C145.081 23.2424 144.906 23.6191 144.675 23.9484C144.445 24.2776 144.161 24.5684 143.825 24.8207C143.488 25.0731 143.104 25.3017 142.673 25.5065C143.046 25.6967 143.375 25.9875 143.66 26.3789C143.945 26.7703 144.161 27.2768 144.307 27.8986L144.867 30.0603H146.239L146.261 33.2974H141.433L140.774 29.3471C140.708 28.8789 140.608 28.4748 140.472 28.1346C140.337 27.7944 140.156 27.5164 139.929 27.3006C139.702 27.0848 139.426 26.9257 139.101 26.8233C138.775 26.7209 138.389 26.6697 137.943 26.6697H136.527V30.2908H138.053V33.2975H131.162V30.2908H132.884V19.6798H131.162L131.162 16.6623ZM136.528 19.6804V23.7075H138.711C139.128 23.7075 139.503 23.6691 139.836 23.5923C140.169 23.5155 140.454 23.3948 140.692 23.2302C140.93 23.0656 141.113 22.8589 141.241 22.6102C141.369 22.3615 141.433 22.0652 141.433 21.7214C141.433 21.0776 141.202 20.5765 140.741 20.2181C140.28 19.8596 139.604 19.6804 138.711 19.6804L136.528 19.6804ZM158.847 21.7209C158.437 21.1357 158.068 20.7205 157.739 20.4755C157.41 20.2304 157.055 20.0548 156.674 19.9488C156.294 19.8427 155.895 19.7896 155.478 19.7896C154.864 19.7896 154.293 19.9268 153.767 20.2011C153.24 20.4755 152.784 20.8485 152.4 21.3204C152.016 21.7922 151.715 22.3409 151.495 22.9663C151.276 23.5917 151.166 24.2556 151.166 24.958C151.166 25.6675 151.274 26.3351 151.49 26.9605C151.705 27.586 152.004 28.1329 152.384 28.6011C152.764 29.0693 153.218 29.4405 153.745 29.7148C154.271 29.9891 154.849 30.1263 155.478 30.1263C155.917 30.1263 156.327 30.055 156.707 29.9123C157.088 29.7697 157.433 29.5813 157.744 29.3472C158.055 29.1131 158.328 28.8443 158.562 28.5407C158.796 28.2371 158.979 27.9207 159.11 27.5915L162.644 28.5791C162.417 29.296 162.084 29.9599 161.645 30.5707C161.206 31.1816 160.678 31.7101 160.06 32.1563C159.441 32.6025 158.747 32.9537 157.975 33.2097C157.203 33.4658 156.371 33.5938 155.478 33.5938C154.725 33.5938 154.004 33.4914 153.317 33.2865C152.629 33.0817 151.987 32.7928 151.391 32.4197C150.795 32.0466 150.253 31.5967 149.767 31.07C149.28 30.5432 148.865 29.9598 148.521 29.3198C148.177 28.6797 147.91 27.9921 147.72 27.2569C147.53 26.5217 147.435 25.7554 147.435 24.958C147.435 23.7656 147.643 22.6482 148.06 21.6057C148.477 20.5633 149.048 19.6525 149.772 18.8735C150.496 18.0944 151.347 17.4799 152.323 17.03C153.3 16.5801 154.352 16.3552 155.478 16.3552C156.378 16.3552 157.135 16.4667 157.75 16.6899C158.364 16.913 159.041 17.3537 159.78 18.0122H162.238V21.7211L158.847 21.7209ZM165.003 16.6623H172.124V19.6689H170.369V30.2908H172.124V33.2975H165.003V30.2908H166.726V19.6689H165.003V16.6623ZM176.744 30.2912H178.467V19.5705H176.448V21.7212H172.87V16.6626H188.003V21.7212H184.403V19.5705H182.11V30.2912H183.866V33.2978H176.744L176.744 30.2912ZM188.858 16.6623H195.98V19.6798H194.586L196.814 23.4984L199.173 19.6798H197.582V16.6623H204.703V19.6798H203.474L198.526 26.3954V30.2908H200.545V33.2975H193.127V30.2908H194.97V26.3514L190.318 19.6798H188.858V16.6623Z" fill="#081073"/>
<path d="M74.1449 53V43.5455H75.2898V51.9844H79.6847V53H74.1449ZM89.0665 48.2727C89.0665 49.2699 88.8865 50.1316 88.5264 50.858C88.1663 51.5843 87.6723 52.1444 87.0445 52.5384C86.4166 52.9323 85.6995 53.1293 84.8932 53.1293C84.0869 53.1293 83.3698 52.9323 82.7419 52.5384C82.1141 52.1444 81.6201 51.5843 81.26 50.858C80.8999 50.1316 80.7199 49.2699 80.7199 48.2727C80.7199 47.2756 80.8999 46.4138 81.26 45.6875C81.6201 44.9612 82.1141 44.401 82.7419 44.0071C83.3698 43.6132 84.0869 43.4162 84.8932 43.4162C85.6995 43.4162 86.4166 43.6132 87.0445 44.0071C87.6723 44.401 88.1663 44.9612 88.5264 45.6875C88.8865 46.4138 89.0665 47.2756 89.0665 48.2727ZM87.9585 48.2727C87.9585 47.4541 87.8216 46.7631 87.5477 46.1999C87.2768 45.6367 86.9091 45.2105 86.4443 44.9212C85.9827 44.6319 85.4656 44.4872 84.8932 44.4872C84.3208 44.4872 83.8022 44.6319 83.3374 44.9212C82.8758 45.2105 82.508 45.6367 82.2341 46.1999C81.9633 46.7631 81.8279 47.4541 81.8279 48.2727C81.8279 49.0914 81.9633 49.7823 82.2341 50.3455C82.508 50.9087 82.8758 51.335 83.3374 51.6243C83.8022 51.9136 84.3208 52.0582 84.8932 52.0582C85.4656 52.0582 85.9827 51.9136 86.4443 51.6243C86.9091 51.335 87.2768 50.9087 87.5477 50.3455C87.8216 49.7823 87.9585 49.0914 87.9585 48.2727ZM97.4546 46.5C97.3531 46.1892 97.2192 45.9106 97.053 45.6644C96.8899 45.4151 96.6945 45.2028 96.4667 45.0273C96.242 44.8519 95.9866 44.718 95.7004 44.6257C95.4142 44.5334 95.1002 44.4872 94.7586 44.4872C94.1985 44.4872 93.6891 44.6319 93.2306 44.9212C92.772 45.2105 92.4073 45.6367 92.1365 46.1999C91.8656 46.7631 91.7302 47.4541 91.7302 48.2727C91.7302 49.0914 91.8672 49.7823 92.1411 50.3455C92.415 50.9087 92.7858 51.335 93.2536 51.6243C93.7214 51.9136 94.2477 52.0582 94.8325 52.0582C95.3741 52.0582 95.8512 51.9428 96.2636 51.712C96.6791 51.4781 97.0022 51.1488 97.233 50.7241C97.4669 50.2963 97.5839 49.7931 97.5839 49.2145L97.9347 49.2884H95.091V48.2727H98.6919V49.2884C98.6919 50.067 98.5257 50.7441 98.1933 51.3196C97.864 51.8951 97.4085 52.3414 96.8268 52.6584C96.2482 52.9723 95.5834 53.1293 94.8325 53.1293C93.9954 53.1293 93.2598 52.9323 92.6258 52.5384C91.9949 52.1444 91.5025 51.5843 91.1485 50.858C90.7977 50.1316 90.6222 49.2699 90.6222 48.2727C90.6222 47.5249 90.7223 46.8524 90.9223 46.2553C91.1254 45.6552 91.4117 45.1443 91.781 44.7227C92.1503 44.301 92.5873 43.9779 93.0921 43.7532C93.5968 43.5285 94.1523 43.4162 94.7586 43.4162C95.2572 43.4162 95.7219 43.4916 96.1528 43.6424C96.5867 43.7901 96.973 44.0009 97.3115 44.2749C97.6531 44.5457 97.9378 44.8704 98.1656 45.2489C98.3933 45.6244 98.5503 46.0414 98.6365 46.5H97.4546ZM101.798 43.5455V53H100.653V43.5455H101.798ZM109.264 45.9091C109.208 45.4413 108.984 45.0781 108.59 44.8196C108.196 44.5611 107.712 44.4318 107.14 44.4318C106.721 44.4318 106.355 44.4995 106.041 44.6349C105.73 44.7704 105.487 44.9566 105.312 45.1935C105.14 45.4305 105.053 45.6998 105.053 46.0014C105.053 46.2538 105.113 46.4708 105.233 46.6523C105.357 46.8308 105.513 46.9801 105.704 47.1001C105.895 47.2171 106.095 47.314 106.304 47.391C106.514 47.4648 106.706 47.5249 106.881 47.571L107.842 47.8295C108.088 47.8942 108.362 47.9834 108.663 48.0973C108.968 48.2112 109.259 48.3666 109.536 48.5636C109.816 48.7575 110.047 49.0067 110.228 49.3114C110.41 49.6161 110.501 49.9901 110.501 50.4332C110.501 50.9441 110.367 51.4058 110.099 51.8182C109.834 52.2306 109.447 52.5584 108.936 52.8015C108.428 53.0446 107.811 53.1662 107.085 53.1662C106.408 53.1662 105.821 53.0569 105.326 52.8384C104.833 52.6199 104.446 52.3152 104.162 51.9244C103.882 51.5335 103.724 51.0795 103.687 50.5625H104.869C104.899 50.9195 105.02 51.215 105.229 51.4489C105.441 51.6797 105.709 51.852 106.032 51.9659C106.358 52.0767 106.709 52.1321 107.085 52.1321C107.522 52.1321 107.914 52.0613 108.262 51.9197C108.61 51.7751 108.885 51.575 109.088 51.3196C109.291 51.0611 109.393 50.7595 109.393 50.4148C109.393 50.1009 109.305 49.8454 109.13 49.6484C108.954 49.4515 108.723 49.2914 108.437 49.1683C108.151 49.0452 107.842 48.9375 107.509 48.8452L106.346 48.5128C105.607 48.3004 105.023 47.9973 104.592 47.6033C104.161 47.2094 103.945 46.6939 103.945 46.0568C103.945 45.5275 104.089 45.0658 104.375 44.6719C104.664 44.2749 105.052 43.9671 105.538 43.7486C106.027 43.527 106.574 43.4162 107.177 43.4162C107.786 43.4162 108.328 43.5254 108.802 43.744C109.276 43.9594 109.651 44.2549 109.928 44.6303C110.208 45.0058 110.356 45.4321 110.372 45.9091H109.264ZM111.866 44.5611V43.5455H118.957V44.5611H115.984V53H114.839V44.5611H111.866ZM121.869 43.5455V53H120.724V43.5455H121.869ZM131.772 46.5H130.627C130.56 46.1707 130.441 45.8814 130.272 45.6321C130.106 45.3828 129.903 45.1735 129.663 45.0043C129.426 44.8319 129.163 44.7027 128.873 44.6165C128.584 44.5303 128.282 44.4872 127.968 44.4872C127.396 44.4872 126.877 44.6319 126.413 44.9212C125.951 45.2105 125.583 45.6367 125.309 46.1999C125.038 46.7631 124.903 47.4541 124.903 48.2727C124.903 49.0914 125.038 49.7823 125.309 50.3455C125.583 50.9087 125.951 51.335 126.413 51.6243C126.877 51.9136 127.396 52.0582 127.968 52.0582C128.282 52.0582 128.584 52.0152 128.873 51.929C129.163 51.8428 129.426 51.7151 129.663 51.5458C129.903 51.3735 130.106 51.1626 130.272 50.9134C130.441 50.661 130.56 50.3717 130.627 50.0455H131.772C131.686 50.5286 131.529 50.9611 131.301 51.3427C131.074 51.7243 130.791 52.049 130.452 52.3168C130.114 52.5814 129.733 52.783 129.312 52.9215C128.893 53.06 128.445 53.1293 127.968 53.1293C127.162 53.1293 126.445 52.9323 125.817 52.5384C125.189 52.1444 124.695 51.5843 124.335 50.858C123.975 50.1316 123.795 49.2699 123.795 48.2727C123.795 47.2756 123.975 46.4138 124.335 45.6875C124.695 44.9612 125.189 44.401 125.817 44.0071C126.445 43.6132 127.162 43.4162 127.968 43.4162C128.445 43.4162 128.893 43.4854 129.312 43.6239C129.733 43.7624 130.114 43.9656 130.452 44.2333C130.791 44.498 131.074 44.8211 131.301 45.2028C131.529 45.5813 131.686 46.0137 131.772 46.5ZM138.793 45.9091C138.737 45.4413 138.513 45.0781 138.119 44.8196C137.725 44.5611 137.242 44.4318 136.669 44.4318C136.251 44.4318 135.884 44.4995 135.571 44.6349C135.26 44.7704 135.017 44.9566 134.841 45.1935C134.669 45.4305 134.583 45.6998 134.583 46.0014C134.583 46.2538 134.643 46.4708 134.763 46.6523C134.886 46.8308 135.043 46.9801 135.234 47.1001C135.424 47.2171 135.624 47.314 135.834 47.391C136.043 47.4648 136.235 47.5249 136.411 47.571L137.371 47.8295C137.617 47.8942 137.891 47.9834 138.193 48.0973C138.497 48.2112 138.788 48.3666 139.065 48.5636C139.345 48.7575 139.576 49.0067 139.758 49.3114C139.939 49.6161 140.03 49.9901 140.03 50.4332C140.03 50.9441 139.896 51.4058 139.628 51.8182C139.364 52.2306 138.976 52.5584 138.465 52.8015C137.957 53.0446 137.34 53.1662 136.614 53.1662C135.937 53.1662 135.351 53.0569 134.855 52.8384C134.363 52.6199 133.975 52.3152 133.692 51.9244C133.412 51.5335 133.253 51.0795 133.216 50.5625H134.398C134.429 50.9195 134.549 51.215 134.758 51.4489C134.97 51.6797 135.238 51.852 135.561 51.9659C135.888 52.0767 136.238 52.1321 136.614 52.1321C137.051 52.1321 137.443 52.0613 137.791 51.9197C138.139 51.7751 138.414 51.575 138.617 51.3196C138.821 51.0611 138.922 50.7595 138.922 50.4148C138.922 50.1009 138.834 49.8454 138.659 49.6484C138.484 49.4515 138.253 49.2914 137.967 49.1683C137.68 49.0452 137.371 48.9375 137.039 48.8452L135.875 48.5128C135.137 48.3004 134.552 47.9973 134.121 47.6033C133.69 47.2094 133.475 46.6939 133.475 46.0568C133.475 45.5275 133.618 45.0658 133.904 44.6719C134.193 44.2749 134.581 43.9671 135.067 43.7486C135.557 43.527 136.103 43.4162 136.706 43.4162C137.316 43.4162 137.857 43.5254 138.331 43.744C138.805 43.9594 139.181 44.2549 139.458 44.6303C139.738 45.0058 139.885 45.4321 139.901 45.9091H138.793ZM150.739 45.9091C150.684 45.4413 150.459 45.0781 150.065 44.8196C149.671 44.5611 149.188 44.4318 148.616 44.4318C148.197 44.4318 147.831 44.4995 147.517 44.6349C147.206 44.7704 146.963 44.9566 146.787 45.1935C146.615 45.4305 146.529 45.6998 146.529 46.0014C146.529 46.2538 146.589 46.4708 146.709 46.6523C146.832 46.8308 146.989 46.9801 147.18 47.1001C147.371 47.2171 147.571 47.314 147.78 47.391C147.989 47.4648 148.182 47.5249 148.357 47.571L149.317 47.8295C149.564 47.8942 149.837 47.9834 150.139 48.0973C150.444 48.2112 150.735 48.3666 151.012 48.5636C151.292 48.7575 151.522 49.0067 151.704 49.3114C151.886 49.6161 151.976 49.9901 151.976 50.4332C151.976 50.9441 151.843 51.4058 151.575 51.8182C151.31 52.2306 150.922 52.5584 150.411 52.8015C149.904 53.0446 149.287 53.1662 148.56 53.1662C147.883 53.1662 147.297 53.0569 146.801 52.8384C146.309 52.6199 145.921 52.3152 145.638 51.9244C145.358 51.5335 145.199 51.0795 145.162 50.5625H146.344C146.375 50.9195 146.495 51.215 146.704 51.4489C146.917 51.6797 147.184 51.852 147.508 51.9659C147.834 52.0767 148.185 52.1321 148.56 52.1321C148.997 52.1321 149.39 52.0613 149.737 51.9197C150.085 51.7751 150.361 51.575 150.564 51.3196C150.767 51.0611 150.868 50.7595 150.868 50.4148C150.868 50.1009 150.781 49.8454 150.605 49.6484C150.43 49.4515 150.199 49.2914 149.913 49.1683C149.627 49.0452 149.317 48.9375 148.985 48.8452L147.822 48.5128C147.083 48.3004 146.498 47.9973 146.067 47.6033C145.636 47.2094 145.421 46.6939 145.421 46.0568C145.421 45.5275 145.564 45.0658 145.85 44.6719C146.14 44.2749 146.527 43.9671 147.014 43.7486C147.503 43.527 148.049 43.4162 148.653 43.4162C149.262 43.4162 149.804 43.5254 150.278 43.744C150.751 43.9594 151.127 44.2549 151.404 44.6303C151.684 45.0058 151.832 45.4321 151.847 45.9091H150.739ZM153.859 53V43.5455H159.565V44.5611H155.004V47.7557H159.269V48.7713H155.004V51.9844H159.639V53H153.859ZM161.628 53V43.5455H164.823C165.562 43.5455 166.168 43.6716 166.642 43.924C167.116 44.1733 167.467 44.5165 167.694 44.9535C167.922 45.3905 168.036 45.8875 168.036 46.4446C168.036 47.0017 167.922 47.4956 167.694 47.9265C167.467 48.3574 167.117 48.6959 166.646 48.9421C166.176 49.1853 165.574 49.3068 164.841 49.3068H162.256V48.2727H164.804C165.309 48.2727 165.715 48.1989 166.023 48.0511C166.334 47.9034 166.559 47.6941 166.697 47.4233C166.839 47.1494 166.91 46.8232 166.91 46.4446C166.91 46.0661 166.839 45.7352 166.697 45.4521C166.556 45.1689 166.329 44.9504 166.019 44.7965C165.708 44.6396 165.297 44.5611 164.786 44.5611H162.773V53H161.628ZM166.079 48.7528L168.405 53H167.076L164.786 48.7528H166.079ZM170.116 43.5455L172.922 51.5043H173.033L175.84 43.5455H177.04L173.569 53H172.387L168.915 43.5455H170.116ZM179.658 43.5455V53H178.513V43.5455H179.658ZM189.561 46.5H188.417C188.349 46.1707 188.23 45.8814 188.061 45.6321C187.895 45.3828 187.692 45.1735 187.452 45.0043C187.215 44.8319 186.952 44.7027 186.662 44.6165C186.373 44.5303 186.071 44.4872 185.757 44.4872C185.185 44.4872 184.666 44.6319 184.202 44.9212C183.74 45.2105 183.372 45.6367 183.098 46.1999C182.828 46.7631 182.692 47.4541 182.692 48.2727C182.692 49.0914 182.828 49.7823 183.098 50.3455C183.372 50.9087 183.74 51.335 184.202 51.6243C184.666 51.9136 185.185 52.0582 185.757 52.0582C186.071 52.0582 186.373 52.0152 186.662 51.929C186.952 51.8428 187.215 51.7151 187.452 51.5458C187.692 51.3735 187.895 51.1626 188.061 50.9134C188.23 50.661 188.349 50.3717 188.417 50.0455H189.561C189.475 50.5286 189.318 50.9611 189.091 51.3427C188.863 51.7243 188.58 52.049 188.241 52.3168C187.903 52.5814 187.522 52.783 187.101 52.9215C186.682 53.06 186.234 53.1293 185.757 53.1293C184.951 53.1293 184.234 52.9323 183.606 52.5384C182.978 52.1444 182.484 51.5843 182.124 50.858C181.764 50.1316 181.584 49.2699 181.584 48.2727C181.584 47.2756 181.764 46.4138 182.124 45.6875C182.484 44.9612 182.978 44.401 183.606 44.0071C184.234 43.6132 184.951 43.4162 185.757 43.4162C186.234 43.4162 186.682 43.4854 187.101 43.6239C187.522 43.7624 187.903 43.9656 188.241 44.2333C188.58 44.498 188.863 44.8211 189.091 45.2028C189.318 45.5813 189.475 46.0137 189.561 46.5ZM191.411 53V43.5455H197.117V44.5611H192.556V47.7557H196.822V48.7713H192.556V51.9844H197.191V53H191.411Z" fill="#081073"/>
</g>
<defs>
<clipPath id="clip0_414_2">
<rect width="214.2" height="64.3655" fill="white"/>
</clipPath>
</defs>
</svg>
